<?xml version="1.0" encoding="iso-8859-1"?>
<!-- Generator: Adobe Illustrator 19.0.0, SVG Export Plug-In . SVG Version: 6.00 Build 0)  -->
<svg version="1.1" id="Layer_1" xmlns="http://www.w3.org/2000/svg" xmlns:xlink="http://www.w3.org/1999/xlink" x="0px" y="0px"
	 viewBox="0 0 504.107 504.107" style="enable-background:new 0 0 504.107 504.107;" xml:space="preserve">
<g transform="translate(7 1)">
	<path style="fill:#AE938D;" d="M73.534,379.373c0,0-25.6-17.067-25.6-102.4s102.4-204.8,102.4-204.8
		c-8.533-34.133,8.533-68.267,8.533-68.267s17.067,8.533,25.6,34.133c0,0,17.067-8.533,59.733-8.533s59.733,8.533,59.733,8.533
		c8.533-25.6,25.6-34.133,25.6-34.133s17.067,34.133,8.533,68.267c0,0,102.4,119.467,102.4,204.8s-25.6,102.4-25.6,102.4
		s-9.387,8.533-29.013,8.533h-1.707c-3.413,23.893-11.093,44.373-22.187,60.587c0,0-5.973,10.24-22.187,17.067h-2.56
		c0-2.56,0.853-5.12,0.853-8.533c0-18.773-9.387-34.987-23.893-40.96l0.853-1.707c11.947-3.413,24.747-17.92,24.747-17.92
		c15.36-21.333,23.893-47.787,23.893-76.8c0-70.827-53.76-128-119.467-128c-65.707,0-119.467,57.173-119.467,128
		c0,29.013,8.533,55.467,23.893,76.8c0,0,6.827,12.8,25.6,17.067l0.853,1.707c-14.507,5.12-24.747,21.333-24.747,40.96
		c0,3.413,0,5.973,0.853,8.533h-0.853c-16.213-6.827-25.6-16.213-25.6-16.213c-11.947-16.213-20.48-36.693-24.747-61.44H98.28
		C82.92,387.907,73.534,379.373,73.534,379.373z M213.48,430.573c0,0,13.653,8.533,30.72,8.533s29.867-7.68,29.867-7.68l1.707,0.853
		c-3.413,6.827-5.973,15.36-5.973,23.893c0,5.973,0.853,11.947,2.56,17.067c-0.853,0.853-12.8,8.533-28.16,8.533
		c-17.067,0-28.16-8.533-28.16-8.533l0,0c1.707-5.12,2.56-11.093,2.56-17.067c0-9.387-2.56-17.92-5.973-24.747L213.48,430.573z"/>
	<path style="fill:#FFD0A1;" d="M175.08,415.214c3.413-0.853,5.973-1.707,9.387-1.707c11.947,0,21.333,6.827,28.16,17.92
		c4.267,6.827,5.973,15.36,5.973,24.747c0,5.973-0.853,11.947-2.56,17.067c-5.12,15.36-17.067,25.6-31.573,25.6
		c-16.213,0-29.867-14.507-33.28-34.133c0-2.56-0.853-5.973-0.853-8.533C150.334,436.547,160.574,420.333,175.08,415.214z
		 M275.774,432.28c5.973-11.093,16.213-18.773,28.16-18.773c3.413,0,7.68,0.853,11.093,2.56
		c13.653,5.973,23.893,21.333,23.893,40.96c0,2.56,0,5.12-0.853,8.533c-3.413,19.627-17.067,34.133-33.28,34.133
		c-13.653,0-26.453-10.24-31.573-25.6c-1.707-5.12-2.56-11.093-2.56-17.067C269.8,446.787,272.36,439.107,275.774,432.28z"/>
	<g>
		<path style="fill:#F2EDDA;" d="M261.267,106.307c0,8.533-8.533,17.067-17.067,17.067s-17.067-8.533-17.067-17.067
			S261.267,97.773,261.267,106.307"/>
		<path style="fill:#F2EDDA;" d="M184.467,413.507c-3.413,0-6.827,0.853-9.387,1.707l-0.853-1.707
			c-19.627-5.12-25.6-17.067-25.6-17.067c-15.36-21.333-23.893-47.787-23.893-76.8c0-70.827,53.76-128,119.467-128
			c65.707,0,119.467,57.173,119.467,128c0,29.013-8.533,55.467-23.893,76.8c0,0-11.947,14.507-24.747,17.92l-0.853,1.707
			c-3.413-1.707-6.827-2.56-11.093-2.56c-11.947,0-22.187,7.68-28.16,18.773l-1.707-0.853c0,0-12.8,7.68-29.867,7.68
			c-17.067,0-30.72-8.533-30.72-8.533l-0.853,0.853C205.8,420.333,196.414,413.507,184.467,413.507"/>
	</g>
</g>
<path style="fill:#51565F;" d="M310.934,504.107c-14.507,0-26.453-9.387-33.28-23.893c-5.12,2.56-14.507,6.827-26.453,6.827
	c-11.947,0-21.333-4.267-26.453-6.827c-6.827,14.507-18.773,23.893-33.28,23.893c-21.333,0-38.4-21.333-38.4-46.933
	s17.067-46.933,38.4-46.933s38.4,21.333,38.4,46.933c0,5.12-0.853,10.24-1.707,15.36c3.413,2.56,11.947,5.973,23.04,5.973
	c11.093,0,19.627-3.413,23.04-5.973c-1.707-5.12-1.707-10.24-1.707-15.36c0-25.6,17.067-46.933,38.4-46.933
	c21.333,0,38.4,21.333,38.4,46.933S332.267,504.107,310.934,504.107z M284.48,474.24c5.12,12.8,15.36,21.333,26.453,21.333
	c16.213,0,29.867-17.067,29.867-38.4s-13.653-38.4-29.867-38.4c-16.213,0-29.867,17.067-29.867,38.4c0,5.12,0.853,10.24,2.56,14.507
	C283.627,472.533,283.627,473.387,284.48,474.24z M191.467,418.773c-16.213,0-29.867,17.067-29.867,38.4s13.653,38.4,29.867,38.4
	s29.867-17.067,29.867-38.4S207.68,418.773,191.467,418.773z M131.734,454.613c-1.707,0-2.56-0.853-3.413-1.707
	c-40.107-52.053-32.427-148.48-17.92-243.2c0-2.56,2.56-4.267,5.12-3.413c2.56,0,4.267,2.56,3.413,5.12
	c-13.653,89.6-22.187,186.88,16.213,237.227c1.707,1.707,0.853,4.267-0.853,5.973C133.44,453.76,132.587,454.613,131.734,454.613z
	 M369.814,452.907c-0.853,0-1.707,0-2.56-0.853c-1.707-1.707-2.56-4.267-0.853-5.973c33.28-47.787,27.307-134.827,17.067-236.373
	c0-2.56,1.707-4.267,3.413-4.267c2.56,0,4.267,1.707,4.267,3.413c10.24,102.4,16.213,192-18.773,241.493
	C372.374,452.053,370.667,452.907,369.814,452.907z M155.627,401.707c-1.707,0-2.56-0.853-3.413-1.707
	c-16.213-23.04-24.747-50.347-24.747-79.36c0-72.533,55.467-132.267,123.733-132.267s123.733,59.733,123.733,132.267
	c0,29.013-8.533,56.32-24.747,79.36c-1.707,1.707-4.267,2.56-5.973,0.853c-1.707-1.707-2.56-4.267-0.853-5.973
	c15.36-21.333,23.04-46.933,23.04-74.24c0-68.267-52.053-123.733-115.2-123.733S136,252.373,136,320.64
	c0,27.307,7.68,52.907,23.04,74.24c1.707,1.707,0.853,4.267-0.853,5.973C157.334,401.707,156.48,401.707,155.627,401.707z
	 M421.867,384.64c-1.707,0-2.56-0.853-3.413-1.707c-1.707-1.707-0.853-4.267,0.853-5.973c0.853,0,23.893-17.92,23.893-98.987
	c0-82.773-100.693-200.533-101.547-202.24c-0.853-0.853-0.853-2.56-0.853-3.413c5.973-25.6-2.56-51.2-5.973-60.587
	c-5.12,4.267-14.507,12.8-19.627,29.013c0,0.853-0.853,1.707-2.56,2.56c-0.853,0.853-2.56,0-3.413,0c0,0-17.067-7.68-58.027-7.68
	s-58.027,7.68-58.027,7.68c-0.853,0.853-2.56,0.853-3.413,0c-0.853-0.853-1.707-1.707-2.56-2.56
	C182.08,24.533,172.694,16,167.574,11.733c-4.267,10.24-12.8,35.84-5.973,60.587c0,1.707,0,2.56-0.853,3.413
	C159.894,76.586,59.2,195.2,59.2,277.973c0,81.067,23.893,98.987,23.893,98.987c1.707,1.707,2.56,4.267,0.853,5.973
	c-1.707,1.707-4.267,2.56-5.973,0.853c-0.853-0.853-27.307-19.627-27.307-105.813c0-81.067,88.747-190.293,102.4-205.653
	c-7.68-34.133,8.533-67.413,9.387-69.12c0.853-0.853,1.707-1.707,2.56-2.56c0.853,0,2.56,0,3.413,0
	c0.853,0,17.067,8.533,26.453,32.427c7.68-2.56,25.6-6.827,57.173-6.827s49.493,4.267,57.173,6.827
	c9.387-23.893,25.6-32.427,26.453-32.427c0.853-0.853,2.56-0.853,3.413,0c0.853,0.853,1.707,0.853,2.56,2.56
	c0.853,1.707,17.067,34.133,9.387,69.12c12.8,15.36,102.4,124.587,102.4,205.653c0,87.04-26.453,104.96-27.307,105.813
	C423.574,384.64,422.72,384.64,421.867,384.64z M336.534,333.44c-0.853,0-2.56,0-3.413-0.853c-1.707-1.707-8.533-7.68-13.653-7.68
	s-11.947,5.12-13.653,7.68c-1.707,1.707-4.267,1.707-5.973,0c-1.707-1.707-1.707-4.267,0-5.973c0.853-0.853,10.24-9.387,20.48-9.387
	c10.24,0,18.773,8.533,20.48,9.387c1.707,1.707,1.707,4.267,0,5.973C339.094,333.44,337.387,333.44,336.534,333.44z M268.267,333.44
	c-0.853,0-2.56,0-3.413-0.853c-1.707-1.707-8.533-7.68-13.653-7.68c-5.12,0-11.947,5.12-13.653,7.68
	c-1.707,1.707-4.267,1.707-5.973,0c-1.707-1.707-1.707-4.267,0-5.973c0.853-0.853,10.24-9.387,20.48-9.387
	c10.24,0,18.773,8.533,20.48,9.387c1.707,1.707,1.707,4.267,0,5.973C270.827,333.44,269.12,333.44,268.267,333.44z M200,333.44
	c-0.853,0-2.56,0-3.413-0.853c-1.707-1.707-8.533-7.68-13.653-7.68c-5.12,0-11.947,5.12-13.653,7.68
	c-1.707,1.707-4.267,1.707-5.973,0c-1.707-1.707-1.707-4.267,0-5.973c0.853-0.853,10.24-9.387,20.48-9.387s18.773,8.533,20.48,9.387
	c1.707,1.707,1.707,4.267,0,5.973C202.56,333.44,200.854,333.44,200,333.44z M302.4,290.773c-0.853,0-2.56,0-3.413-0.853
	c-1.707-1.707-8.533-7.68-13.653-7.68c-5.12,0-11.947,5.12-13.653,7.68c-1.707,1.707-4.267,1.707-5.973,0
	c-1.707-1.707-1.707-4.267,0-5.973c0.853-0.853,10.24-9.387,20.48-9.387c10.24,0,18.773,8.533,20.48,9.387
	c1.707,1.707,1.707,4.267,0,5.973C304.96,290.773,303.254,290.773,302.4,290.773z M234.134,290.773c-0.853,0-2.56,0-3.413-0.853
	c-1.707-1.707-8.533-7.68-13.653-7.68c-5.12,0-11.947,5.12-13.653,7.68c-1.707,1.707-4.267,1.707-5.973,0
	c-1.707-1.707-1.707-4.267,0-5.973c0.853-0.853,10.24-9.387,20.48-9.387s18.773,8.533,20.48,9.387c1.707,1.707,1.707,4.267,0,5.973
	C236.694,290.773,234.987,290.773,234.134,290.773z M268.267,248.107c-0.853,0-2.56,0-3.413-0.853
	c-1.707-1.707-8.533-7.68-13.653-7.68c-5.12,0-11.947,5.12-13.653,7.68c-1.707,1.707-4.267,1.707-5.973,0
	c-1.707-1.707-1.707-4.267,0-5.973c0.853-0.853,10.24-9.387,20.48-9.387c10.24,0,18.773,8.533,20.48,9.387
	c1.707,1.707,1.707,4.267,0,5.973C270.827,248.107,269.12,248.107,268.267,248.107z M234.134,171.307c-0.853,0-2.56,0-3.413-0.853
	c-1.707-1.707-1.707-4.267,0-5.973c9.387-9.387,28.16-9.387,29.013-9.387c2.56,0,4.267,1.707,4.267,4.267
	c0,2.56-1.707,4.267-4.267,4.267c0,0-15.36,0-22.187,7.68C236.694,171.307,234.987,171.307,234.134,171.307z M251.2,128.64
	c-11.093,0-21.333-10.24-21.333-21.333c0-7.68,11.093-11.093,21.333-11.093s21.333,2.56,21.333,11.093
	C272.534,118.4,262.294,128.64,251.2,128.64z M238.4,107.307c0,5.973,6.827,12.8,12.8,12.8s12.8-6.827,12.8-12.8
	c-0.853,0-5.12-2.56-12.8-2.56C243.52,105.6,239.254,106.453,238.4,107.307z M306.667,111.573c-5.12,0-8.533-3.413-8.533-8.533
	c0-5.12,3.413-8.533,8.533-8.533s8.533,3.413,8.533,8.533C315.2,108.16,311.787,111.573,306.667,111.573z M195.734,111.573
	c-5.12,0-8.533-3.413-8.533-8.533c0-5.12,3.413-8.533,8.533-8.533c5.12,0,8.533,3.413,8.533,8.533
	C204.267,108.16,200.854,111.573,195.734,111.573z"/>
<g>
</g>
<g>
</g>
<g>
</g>
<g>
</g>
<g>
</g>
<g>
</g>
<g>
</g>
<g>
</g>
<g>
</g>
<g>
</g>
<g>
</g>
<g>
</g>
<g>
</g>
<g>
</g>
<g>
</g>
</svg>
